<svg xmlns="http://www.w3.org/2000/svg" viewBox="0 0 64 64" fill="none">
  <defs>
    <linearGradient id="cloud" x1="11" y1="10" x2="52" y2="45" gradientUnits="userSpaceOnUse">
      <stop stop-color="#2563EB"/>
      <stop offset="1" stop-color="#06B6D4"/>
    </linearGradient>
    <linearGradient id="arrow" x1="31" y1="43" x2="50" y2="23" gradientUnits="userSpaceOnUse">
      <stop stop-color="#06B6D4"/>
      <stop offset="1" stop-color="#10B981"/>
    </linearGradient>
  </defs>
  <rect x="2" y="2" width="60" height="60" rx="16" fill="white"/>
  <path d="M19.5 42.5h27A10.5 10.5 0 0 0 48 21.6a14.8 14.8 0 0 0-27.9 4.2A8.5 8.5 0 0 0 19.5 42.5Z" stroke="url(#cloud)" stroke-width="4" stroke-linecap="round" stroke-linejoin="round"/>
  <path d="M18 31.5c0-2 1.6-3.5 3.5-3.5h8l3.2 3.2H43c2 0 3.5 1.6 3.5 3.5V45c0 2-1.6 3.5-3.5 3.5H21.5A3.5 3.5 0 0 1 18 45V31.5Z" fill="#0B132B"/>
  <path d="M31.5 43.5 47 28m0 0h-8m8 0v8" stroke="white" stroke-width="6" stroke-linecap="round" stroke-linejoin="round" opacity=".94"/>
  <path d="M31.5 43.5 47 28m0 0h-8m8 0v8" stroke="url(#arrow)" stroke-width="3.2" stroke-linecap="round" stroke-linejoin="round"/>
</svg>
